<svg version="1.1" viewBox="0.0 0.0 300.0 161.501312335958" fill="none" stroke="none" stroke-linecap="square" stroke-miterlimit="10" xmlns:xlink="http://www.w3.org/1999/xlink" xmlns="http://www.w3.org/2000/svg"><clipPath id="p.0"><path d="m0 0l299.5013 0l0 161.50131l-299.5013 0l0 -161.50131z" clip-rule="nonzero"/></clipPath><g clip-path="url(#p.0)"><path fill="#000000" fill-opacity="0.0" d="m0 0l299.5013 0l0 161.50131l-299.5013 0z" fill-rule="evenodd"/><path fill="#9bb859" d="m43.918636 161.50194l0 -161.3885l10.913776 0l0 161.3885z" fill-rule="evenodd"/><path fill="#9bb859" d="m27.604961 80.7504l0 0c0 -12.037193 9.75808 -21.795273 21.795277 -21.795273l0 0c5.780464 0 11.324181 2.29628 15.411583 6.38369c4.08741 4.0874023 6.38369 9.631119 6.38369 15.411583l0 0c0 12.037201 -9.758076 21.79528 -21.795273 21.79528l0 0c-12.037197 0 -21.795277 -9.75808 -21.795277 -21.79528z" fill-rule="evenodd"/><path fill="#ffffff" d="m36.160023 80.75473l0 0c0 -7.314514 5.9295845 -13.244095 13.244095 -13.244095l0 0c3.5125542 0 6.881241 1.3953552 9.36499 3.8791046c2.4837494 2.4837494 3.8791046 5.85244 3.8791046 9.36499l0 0c0 7.314514 -5.9295807 13.244095 -13.244095 13.244095l0 0c-7.3145103 0 -13.244095 -5.9295807 -13.244095 -13.244095z" fill-rule="evenodd"/><path fill="#ff9342" d="m153.9657 161.61346l0 -161.49998l10.913773 0l0 161.49998z" fill-rule="evenodd"/><path fill="#34adc7" d="m208.98923 161.61346l0 -161.49998l10.913773 0l0 161.49998z" fill-rule="evenodd"/><path fill="#ca504a" d="m264.01276 161.61346l0 -161.49998l10.913788 0l0 161.49998z" fill-rule="evenodd"/><path fill="#4083bd" d="m98.94217 161.61346l0 -161.49998l10.913773 0l0 161.49998z" fill-rule="evenodd"/></g></svg>