<svg version="1.1" viewBox="0.0 0.0 299.501312335958 161.501312335958" fill="none" stroke="none" stroke-linecap="square" stroke-miterlimit="10" xmlns:xlink="http://www.w3.org/1999/xlink" xmlns="http://www.w3.org/2000/svg"><clipPath id="p.0"><path d="m0 0l299.5013 0l0 161.50131l-299.5013 0l0 -161.50131z" clip-rule="nonzero"/></clipPath><g clip-path="url(#p.0)"><path fill="#000000" fill-opacity="0.0" d="m0 0l299.5013 0l0 161.50131l-299.5013 0z" fill-rule="evenodd"/><path fill="#ff9342" d="m153.9657 0.11348189l0 161.49997l10.913773 0l0 -161.49997z" fill-rule="evenodd"/><path fill="#4083bd" d="m98.94226 0.47760892l0 62.94501l10.913773 0l0 -62.94501z" fill-rule="evenodd"/><defs><linearGradient id="p.1" gradientUnits="userSpaceOnUse" gradientTransform="matrix(3.5260458161905257 0.0 0.0 3.5260458161905257 0.0 0.0)" spreadMethod="pad" x1="43.65264870652304" y1="26.811372976795884" x2="43.652634168106346" y2="30.337418792956438"><stop offset="0.0" stop-color="#4083bd"/><stop offset="1.0" stop-color="#ff9342"/></linearGradient></defs><path fill="url(#p.1)" d="m153.92123 94.53817l0 12.4329605l10.913788 0l0 -12.4329605z" fill-rule="evenodd"/><path fill="#34adc7" d="m208.98923 0.11348189l0 161.49997l10.913773 0l0 -161.49997z" fill-rule="evenodd"/><path fill="#ca504a" d="m264.01276 0.11348189l0 161.49997l10.913788 0l0 -161.49997z" fill-rule="evenodd"/><path fill="#ff9342" d="m137.6312 128.87419l0 0c0 12.037186 9.758072 21.795273 21.795273 21.795273l0 0c5.7804565 0 11.324173 -2.29628 15.411591 -6.3836975c4.0874023 -4.0874023 6.3836823 -9.631119 6.3836823 -15.411575l0 0c0 -12.037209 -9.758072 -21.79528 -21.795273 -21.79528l0 0c-12.037201 0 -21.795273 9.758072 -21.795273 21.79528z" fill-rule="evenodd"/><path fill="#ffffff" d="m146.18625 128.86986l0 0c0 7.314499 5.9295807 13.244095 13.244095 13.244095l0 0c3.512558 0 6.881241 -1.3953552 9.36499 -3.8791046c2.4837494 -2.4837494 3.8791046 -5.8524475 3.8791046 -9.36499l0 0c0 -7.314514 -5.9295807 -13.2441025 -13.244095 -13.2441025l0 0c-7.314514 0 -13.244095 5.9295883 -13.244095 13.2441025z" fill-rule="evenodd"/><path fill="#ffffff" d="m145.20209 46.615395l28.440948 0l0 12.913387l-28.440948 0z" fill-rule="evenodd"/><path stroke="#ff9342" stroke-width="1.0" stroke-linejoin="round" stroke-linecap="butt" d="m145.20209 46.615395l28.440948 0l0 12.913387l-28.440948 0z" fill-rule="evenodd"/><path fill="#000000" d="m151.40056 51.177715q0.28125 0 0.515625 0.125q0.25 0.109375 0.40625 0.453125q0.171875 0.328125 0.171875 0.984375l0 4.171875l-0.828125 0l0 -4.03125q0 -0.53125 -0.078125 -0.765625q-0.0625 -0.234375 -0.359375 -0.234375q-0.25 0 -0.5 0.15625q-0.25 0.15625 -0.484375 0.515625l0 4.359375l-0.828125 0l0 -4.03125q0 -0.53125 -0.078125 -0.765625q-0.0625 -0.234375 -0.359375 -0.234375q-0.265625 0 -0.515625 0.15625q-0.234375 0.15625 -0.46875 0.515625l0 4.359375l-0.828125 0l0 -5.609375l0.703125 0l0.0625 0.65625q0.234375 -0.328125 0.515625 -0.546875q0.28125 -0.234375 0.703125 -0.234375q0.3125 0 0.59375 0.15625q0.296875 0.15625 0.421875 0.59375q0.234375 -0.328125 0.515625 -0.53125q0.296875 -0.21875 0.71875 -0.21875zm6.721939 4.515625q0 0.328125 0.109375 0.484375q0.109375 0.15625 0.34375 0.234375l-0.21875 0.625q-0.359375 -0.046875 -0.640625 -0.234375q-0.265625 -0.1875 -0.390625 -0.5625q-0.296875 0.390625 -0.75 0.59375q-0.453125 0.203125 -1.0 0.203125q-0.84375 0 -1.328125 -0.46875q-0.484375 -0.484375 -0.484375 -1.265625q0 -0.875 0.671875 -1.328125q0.671875 -0.46875 1.953125 -0.46875l0.828125 0l0 -0.46875q0 -0.609375 -0.359375 -0.859375q-0.34375 -0.25 -0.984375 -0.25q-0.265625 0 -0.640625 0.0625q-0.375 0.0625 -0.8125 0.21875l-0.234375 -0.671875q0.515625 -0.1875 0.96875 -0.265625q0.453125 -0.09375 0.859375 -0.09375q1.046875 0 1.578125 0.5q0.53125 0.484375 0.53125 1.3125l0 2.703125zm-2.328125 0.65625q0.421875 0 0.796875 -0.203125q0.375 -0.21875 0.625 -0.59375l0 -1.4375l-0.8125 0q-0.921875 0 -1.3125 0.328125q-0.375 0.3125 -0.375 0.84375q0 0.53125 0.265625 0.796875q0.28125 0.265625 0.8125 0.265625zm7.534439 -5.046875l0 4.90625l1.59375 0l0 0.703125l-4.21875 0l0 -0.703125l1.734375 0l0 -4.203125l-1.671875 0l0 -0.703125l2.5625 0zm-0.703125 -2.625q0.296875 0 0.46875 0.1875q0.1875 0.171875 0.1875 0.4375q0 0.265625 -0.1875 0.453125q-0.171875 0.1875 -0.46875 0.1875q-0.28125 0 -0.46875 -0.1875q-0.1875 -0.1875 -0.1875 -0.453125q0 -0.265625 0.1875 -0.4375q0.1875 -0.1875 0.46875 -0.1875zm4.268814 8.234375l0 -5.609375l0.75 0l0.078125 0.78125q0.34375 -0.4375 0.84375 -0.671875q0.515625 -0.234375 1.0 -0.234375q0.828125 0 1.203125 0.4375q0.375 0.4375 0.375 1.21875l0 4.078125l-0.890625 0l0 -3.421875q0 -0.5625 -0.0625 -0.921875q-0.0625 -0.359375 -0.265625 -0.515625q-0.203125 -0.171875 -0.625 -0.171875q-0.328125 0 -0.625 0.15625q-0.296875 0.140625 -0.53125 0.359375q-0.21875 0.203125 -0.359375 0.421875l0 4.09375l-0.890625 0z" fill-rule="nonzero"/><path fill="#4083bd" d="m98.95018 61.727646l0 0c0.030662537 12.093643 9.807922 21.881187 21.8582 21.881187l0 -10.929131c-6.025177 0 -10.913826 -4.9114 -10.9291 -10.979965z" fill-rule="evenodd"/><path fill="#4083bd" d="m120.33848 83.60883l23.451363 0l0 -10.913773l-23.451363 0z" fill-rule="evenodd"/><path fill="#4083bd" d="m164.83379 94.538925l0 0c-0.050247192 -12.079628 -9.821716 -21.845444 -21.858078 -21.845444l0 10.929131c6.0182495 0 10.904007 4.9005356 10.929031 10.96209z" fill-rule="evenodd"/><path fill="#ffffff" d="m49.67454 15.653454l109.44881 0l0 12.913385l-109.44881 0z" fill-rule="evenodd"/><path stroke="#4083bd" stroke-width="1.0" stroke-linejoin="round" stroke-linecap="butt" d="m49.67454 15.653454l109.44881 0l0 12.913385l-109.44881 0z" fill-rule="evenodd"/><path fill="#000000" d="m54.442158 17.965773q0.453125 0 0.8125 0.078125q0.375 0.078125 0.703125 0.234375l-0.296875 0.65625q-0.265625 -0.109375 -0.578125 -0.171875q-0.296875 -0.0625 -0.625 -0.0625q-0.578125 0 -0.875 0.234375q-0.296875 0.234375 -0.296875 0.703125l0 1.140625l1.90625 0l-0.09375 0.703125l-1.8125 0l0 4.46875l-0.890625 0l0 -4.46875l-1.34375 0l0 -0.703125l1.34375 0l0 -1.125q0 -0.515625 0.265625 -0.890625q0.265625 -0.390625 0.71875 -0.59375q0.46875 -0.203125 1.0625 -0.203125zm3.784439 5.5q0.015625 0.640625 0.234375 1.0625q0.234375 0.40625 0.59375 0.609375q0.375 0.1875 0.8125 0.1875q0.421875 0 0.765625 -0.125q0.359375 -0.125 0.71875 -0.375l0.421875 0.59375q-0.390625 0.296875 -0.890625 0.484375q-0.5 0.171875 -1.03125 0.171875q-0.8125 0 -1.390625 -0.359375q-0.578125 -0.375 -0.875 -1.03125q-0.296875 -0.65625 -0.296875 -1.53125q0 -0.859375 0.296875 -1.515625q0.296875 -0.65625 0.84375 -1.03125q0.5625 -0.390625 1.296875 -0.390625q0.71875 0 1.21875 0.34375q0.515625 0.328125 0.78125 0.953125q0.28125 0.609375 0.28125 1.453125q0 0.15625 0 0.28125q0 0.125 -0.015625 0.21875l-3.765625 0zm1.515625 -2.515625q-0.625 0 -1.046875 0.453125q-0.40625 0.4375 -0.46875 1.359375l2.921875 0q-0.015625 -0.890625 -0.390625 -1.34375q-0.375 -0.46875 -1.015625 -0.46875zm8.190685 3.78125q0 0.328125 0.109375 0.484375q0.109375 0.15625 0.34375 0.234375l-0.21875 0.625q-0.359375 -0.046875 -0.640625 -0.234375q-0.265625 -0.1875 -0.390625 -0.5625q-0.296875 0.390625 -0.75 0.59375q-0.453125 0.203125 -1.0 0.203125q-0.84375 0 -1.328125 -0.46875q-0.4843712 -0.484375 -0.4843712 -1.265625q0 -0.875 0.6718712 -1.328125q0.671875 -0.46875 1.953125 -0.46875l0.828125 0l0 -0.46875q0 -0.609375 -0.359375 -0.859375q-0.34375 -0.25 -0.984375 -0.25q-0.265625 0 -0.640625 0.0625q-0.375 0.0625 -0.8125 0.21875l-0.23437119 -0.671875q0.5156212 -0.1875 0.9687462 -0.265625q0.453125 -0.09375 0.859375 -0.09375q1.046875 0 1.578125 0.5q0.53125 0.484375 0.53125 1.3125l0 2.703125zm-2.328125 0.65625q0.421875 0 0.796875 -0.203125q0.375 -0.21875 0.625 -0.59375l0 -1.4375l-0.8125 0q-0.921875 0 -1.3125 0.328125q-0.375 0.3125 -0.375 0.84375q0 0.53125 0.265625 0.796875q0.28125 0.265625 0.8125 0.265625zm9.159439 0.28125q-0.296875 0.1875 -0.703125 0.296875q-0.40625 0.109375 -0.8125 0.109375q-0.90625 0 -1.390625 -0.46875q-0.484375 -0.484375 -0.484375 -1.234375l0 -3.34375l-1.296875 0l0 -0.6875l1.296875 0l0 -1.28125l0.890625 -0.09375l0 1.375l1.9375 0l-0.109375 0.6875l-1.828125 0l0 3.34375q0 0.46875 0.25 0.71875q0.25 0.234375 0.828125 0.234375q0.3125 0 0.578125 -0.0625q0.265625 -0.078125 0.484375 -0.203125l0.359375 0.609375zm2.831314 -5.328125l0 3.96875q0 0.5625 0.21875 0.8125q0.234375 0.234375 0.71875 0.234375q0.46875 0 0.875 -0.265625q0.421875 -0.265625 0.640625 -0.625l0 -4.125l0.90625 0l0 5.609375l-0.765625 0l-0.078125 -0.75q-0.328125 0.421875 -0.8125 0.65625q-0.484375 0.21875 -0.984375 0.21875q-0.8125 0 -1.21875 -0.4375q-0.390625 -0.4375 -0.390625 -1.21875l0 -4.078125l0.890625 0zm5.550064 5.609375l0 -0.6875l0.875 0l0 -4.234375l-0.875 0l0 -0.6875l1.5625 0l0.15625 1.328125q0.328125 -0.6875 0.78125 -1.0625q0.46875 -0.390625 1.234375 -0.390625q0.234375 0 0.421875 0.046875q0.1875 0.03125 0.375 0.078125l-0.265625 0.796875q-0.171875 -0.046875 -0.328125 -0.0625q-0.140625 -0.03125 -0.328125 -0.03125q-0.640625 0 -1.109375 0.46875q-0.453125 0.453125 -0.734375 1.375l0 2.375l1.140625 0l0 0.6875l-2.90625 0zm3.671875 -3.71875l0 -1.21875l0.078125 -0.671875l0.78125 0l-0.125 1.890625l-0.734375 0zm3.378189 1.234375q0.015625 0.640625 0.234375 1.0625q0.234375 0.40625 0.59375 0.609375q0.375 0.1875 0.8125 0.1875q0.421875 0 0.765625 -0.125q0.359375 -0.125 0.71875 -0.375l0.421875 0.59375q-0.390625 0.296875 -0.890625 0.484375q-0.5 0.171875 -1.03125 0.171875q-0.8125 0 -1.390625 -0.359375q-0.578125 -0.375 -0.875 -1.03125q-0.296875 -0.65625 -0.296875 -1.53125q0 -0.859375 0.296875 -1.515625q0.296875 -0.65625 0.84375 -1.03125q0.5625 -0.390625 1.296875 -0.390625q0.71875 0 1.21875 0.34375q0.515625 0.328125 0.78125 0.953125q0.28125 0.609375 0.28125 1.453125q0 0.15625 0 0.28125q0 0.125 -0.015625 0.21875l-3.765625 0zm1.515625 -2.515625q-0.625 0 -1.046875 0.453125q-0.40625 0.4375 -0.46875 1.359375l2.921875 0q-0.015625 -0.890625 -0.390625 -1.34375q-0.375 -0.46875 -1.015625 -0.46875zm4.378189 6.09375l-0.71875 -0.3125l4.5625 -9.40625l0.703125 0.34375l-4.546875 9.375zm7.378189 -7.671875l0 2.46875l2.71875 0l0 0.765625l-2.71875 0l0 2.609375l3.328125 0l0 0.734375l-4.25 0l0 -7.34375l4.15625 0l-0.109375 0.765625l-3.125 0zm9.065689 1.5q0 -0.5625 -0.21875 -0.890625q-0.21875 -0.34375 -0.609375 -0.484375q-0.390625 -0.15625 -0.890625 -0.15625l-1.0625 0l0 3.140625l1.03125 0q0.515625 0 0.90625 -0.140625q0.390625 -0.140625 0.609375 -0.484375q0.234375 -0.359375 0.234375 -0.984375zm1.0 0q0 0.859375 -0.375 1.375q-0.359375 0.515625 -1.0 0.75q-0.640625 0.234375 -1.46875 0.234375l-0.9375 0l0 2.71875l-0.921875 0l0 -7.34375l1.875 0q1.3125 0 2.0625 0.5625q0.765625 0.546875 0.765625 1.703125zm5.753189 -2.265625l0 0.75l-1.625 0l0 5.859375l1.625 0l0 0.734375l-4.203125 0l0 -0.734375l1.640625 0l0 -5.859375l-1.640625 0l0 -0.75l4.203125 0zm4.909439 -0.109375q0.71875 0 1.203125 0.1875q0.484375 0.171875 0.921875 0.53125l-0.515625 0.59375q-0.34375 -0.296875 -0.734375 -0.421875q-0.375 -0.125 -0.796875 -0.125q-0.609375 0 -1.125 0.296875q-0.5 0.28125 -0.8125 0.9375q-0.3125 0.65625 -0.3125 1.78125q0 1.09375 0.296875 1.765625q0.296875 0.65625 0.796875 0.953125q0.5 0.28125 1.125 0.28125q0.625 0 1.015625 -0.1875q0.40625 -0.1875 0.6875 -0.421875l0.484375 0.609375q-0.328125 0.3125 -0.875 0.5625q-0.53125 0.234375 -1.3125 0.234375q-0.890625 0 -1.625 -0.4375q-0.71875 -0.4375 -1.140625 -1.28125q-0.421875 -0.84375 -0.421875 -2.078125q0 -1.234375 0.421875 -2.078125q0.4375 -0.84375 1.15625 -1.265625q0.71875 -0.4375 1.5625 -0.4375zm3.643814 4.5l0 -0.765625l4.265625 0l0 0.765625l-4.265625 0zm9.315689 -4.390625l0 7.125l-0.90625 0l0 -6.140625l-1.671875 1.015625l-0.390625 -0.640625l2.1875 -1.359375l0.78125 0zm1.53125 6.609375l0 0.734375l-4.234375 0l0 -0.734375l4.234375 0zm4.862564 -6.609375l0 7.125l-0.90625 0l0 -6.140625l-1.671875 1.015625l-0.390625 -0.640625l2.1875 -1.359375l0.78125 0zm1.53125 6.609375l0 0.734375l-4.234375 0l0 -0.734375l4.234375 0zm4.862564 -6.609375l0 7.125l-0.90625 0l0 -6.140625l-1.671875 1.015625l-0.390625 -0.640625l2.1875 -1.359375l0.78125 0zm1.53125 6.609375l0 0.734375l-4.234375 0l0 -0.734375l4.234375 0zm4.862564 -6.609375l0 7.125l-0.90625 0l0 -6.140625l-1.671875 1.015625l-0.390625 -0.640625l2.1875 -1.359375l0.78125 0zm1.53125 6.609375l0 0.734375l-4.234375 0l0 -0.734375l4.234375 0z" fill-rule="nonzero"/></g></svg>