<svg version="1.1" viewBox="0.0 0.0 300.0 100.0" fill="none" stroke="none" stroke-linecap="square" stroke-miterlimit="10" xmlns:xlink="http://www.w3.org/1999/xlink" xmlns="http://www.w3.org/2000/svg"><clipPath id="p.0"><path d="m0 0l299.64304 0l0 100.0l-299.64304 0l0 -100.0z" clip-rule="nonzero"/></clipPath><g clip-path="url(#p.0)"><path fill="#000000" fill-opacity="0.0" d="m0 0l299.64304 0l0 100.0l-299.64304 0z" fill-rule="evenodd"/><path fill="#9bb859" d="m43.918636 100.1129l0 -28.986961l10.913776 0l0 28.986961z" fill-rule="evenodd"/><path fill="#ff9342" d="m153.96553 14.531931l0 -14.532656l10.913788 0l0 14.532656z" fill-rule="evenodd"/><path fill="#34adc7" d="m208.98921 100.11239l0 -53.77945l10.913773 0l0 53.77945z" fill-rule="evenodd"/><path fill="#ca504a" d="m264.01312 100.11288l0 -29.112839l10.913788 0l0 29.112839z" fill-rule="evenodd"/><path fill="#4083bd" d="m98.94216 100.11239l0 -53.77945l10.913773 0l0 53.77945z" fill-rule="evenodd"/><path fill="#9bb859" d="m132.13911 38.624672l0 -38.624588l10.913773 0l0 38.624588z" fill-rule="evenodd"/><path fill="#4083bd" d="m143.05244 14.531931l0 -14.532656l10.913773 0l0 14.532656z" fill-rule="evenodd"/><path fill="#34adc7" d="m164.87888 14.531931l0 -14.532656l10.913773 0l0 14.532656z" fill-rule="evenodd"/><path fill="#ca504a" d="m175.79265 38.502506l0 -38.501324l10.913773 0l0 38.501324z" fill-rule="evenodd"/><path fill="#ff9342" d="m153.96588 99.999954l0 -85.750565l10.913773 0l0 85.750565z" fill-rule="evenodd"/><path fill="#9bb859" d="m43.918705 71.2493l0 0c0.030662537 -12.093643 9.807926 -21.881187 21.858196 -21.881187l0 10.929134c-6.025173 0 -10.913822 4.911396 -10.929096 10.979961z" fill-rule="evenodd"/><path fill="#9bb859" d="m65.63781 49.36811l55.987 0l0 10.913776l-55.987 0z" fill-rule="evenodd"/><path fill="#9bb859" d="m143.0523 38.438023l0 0c-0.050247192 12.079628 -9.821701 21.845444 -21.858078 21.845444l0 -10.929134c6.0182495 0 10.904007 -4.9005356 10.929031 -10.962093z" fill-rule="evenodd"/><path fill="#4083bd" d="m98.94347 47.065567l0 0c0.13080597 -12.021313 9.878082 -21.697456 21.856964 -21.697456l0 10.929134c-5.989609 0 -10.863319 4.8556976 -10.92849 10.888096z" fill-rule="evenodd"/><path fill="#4083bd" d="m120.750656 25.367455l11.748138 0l0 10.913776l-11.748138 0z" fill-rule="evenodd"/><path fill="#4083bd" d="m153.9273 14.438023l0 0c-0.050247192 12.079626 -9.821701 21.845444 -21.858078 21.845444l0 -10.929136c6.0182495 0 10.904007 -4.9005337 10.929031 -10.9620905z" fill-rule="evenodd"/><path fill="#ca504a" d="m274.92743 71.2493l0 0c-0.030670166 -12.093643 -9.807922 -21.881187 -21.8582 -21.881187l0 10.929134c6.0251617 0 10.913834 4.911396 10.929092 10.979961z" fill-rule="evenodd"/><path fill="#ca504a" d="m253.20831 49.36811l-55.987 0l0 10.913776l55.987 0z" fill-rule="evenodd"/><path fill="#ca504a" d="m175.79382 38.438023l0 0c0.050247192 12.079628 9.821701 21.845444 21.858078 21.845444l0 -10.929134c-6.0182495 0 -10.904007 -4.9005356 -10.929031 -10.962093z" fill-rule="evenodd"/><path fill="#34adc7" d="m219.90266 47.065567l0 0c-0.1308136 -12.021313 -9.878082 -21.697456 -21.856964 -21.697456l0 10.929134c5.989609 0 10.863312 4.8556976 10.928482 10.888096z" fill-rule="evenodd"/><path fill="#34adc7" d="m164.91982 14.438023l0 0c0.050231934 12.079626 9.821701 21.845444 21.858078 21.845444l0 -10.929136c-6.0182495 0 -10.904022 -4.9005337 -10.929047 -10.9620905z" fill-rule="evenodd"/><path fill="#34adc7" d="m186.70604 25.367455l11.748138 0l0 10.913776l-11.748138 0z" fill-rule="evenodd"/></g></svg>