<svg version="1.1" viewBox="0.0 0.0 299.501312335958 161.501312335958" fill="none" stroke="none" stroke-linecap="square" stroke-miterlimit="10" xmlns:xlink="http://www.w3.org/1999/xlink" xmlns="http://www.w3.org/2000/svg"><clipPath id="p.0"><path d="m0 0l299.5013 0l0 161.50131l-299.5013 0l0 -161.50131z" clip-rule="nonzero"/></clipPath><g clip-path="url(#p.0)"><path fill="#000000" fill-opacity="0.0" d="m0 0l299.5013 0l0 161.50131l-299.5013 0z" fill-rule="evenodd"/><path fill="#9bb859" d="m43.918636 161.50194l0 -161.3885l10.913776 0l0 161.3885z" fill-rule="evenodd"/><path fill="#ff9342" d="m153.9657 161.61346l0 -161.49998l10.913773 0l0 161.49998z" fill-rule="evenodd"/><path fill="#34adc7" d="m208.98923 161.61346l0 -161.49998l10.913773 0l0 161.49998z" fill-rule="evenodd"/><path fill="#ca504a" d="m264.01276 161.61346l0 -161.49998l10.913788 0l0 161.49998z" fill-rule="evenodd"/><path fill="#4083bd" d="m98.94217 161.61346l0 -161.49998l10.913773 0l0 161.49998z" fill-rule="evenodd"/><path fill="#34adc7" d="m192.6522 80.86326l0 0c0 -12.037193 9.758072 -21.795273 21.795273 -21.795273l0 0c5.780472 0 11.324188 2.29628 15.411591 6.38369c4.0874023 4.0874023 6.3836823 9.631119 6.3836823 15.411583l0 0c0 12.037201 -9.758072 21.79528 -21.795273 21.79528l0 0c-12.037201 0 -21.795273 -9.75808 -21.795273 -21.79528z" fill-rule="evenodd"/><path fill="#ffffff" d="m201.20728 80.86759l0 0c0 -7.314514 5.9295807 -13.244095 13.244095 -13.244095l0 0c3.5125427 0 6.8812256 1.3953552 9.364975 3.8791046c2.4837494 2.4837494 3.8791046 5.85244 3.8791046 9.36499l0 0c0 7.314514 -5.9295807 13.244095 -13.24408 13.244095l0 0c-7.314514 0 -13.244095 -5.9295807 -13.244095 -13.244095z" fill-rule="evenodd"/></g></svg>