<svg version="1.1" viewBox="0.0 0.0 300.0 161.501312335958" fill="none" stroke="none" stroke-linecap="square" stroke-miterlimit="10" xmlns:xlink="http://www.w3.org/1999/xlink" xmlns="http://www.w3.org/2000/svg"><clipPath id="p.0"><path d="m0 0l299.5013 0l0 161.50131l-299.5013 0l0 -161.50131z" clip-rule="nonzero"/></clipPath><g clip-path="url(#p.0)"><path fill="#000000" fill-opacity="0.0" d="m0 0l299.5013 0l0 161.50131l-299.5013 0z" fill-rule="evenodd"/><path fill="#4083bd" d="m98.94226 161.24933l0 -154.2492l10.913773 0l0 154.2492z" fill-rule="evenodd"/><defs><linearGradient id="p.1" gradientUnits="userSpaceOnUse" gradientTransform="matrix(3.5260458161905257 0.0 0.0 3.5260458161905257 0.0 0.0)" spreadMethod="pad" x1="28.045513000839623" y1="15.528946646858872" x2="28.04549846242293" y2="19.054992463019428"><stop offset="0.0" stop-color="#4083bd"/><stop offset="1.0" stop-color="#9bb859"/></linearGradient></defs><path fill="url(#p.1)" d="m98.88976 67.188774l0 -12.4329605l10.91378 0l0 12.4329605z" fill-rule="evenodd"/><path fill="#9bb859" d="m43.918636 161.61417l0 -62.11299l10.913776 0l0 62.11299z" fill-rule="evenodd"/><path fill="#ff9342" d="m153.9657 161.61346l0 -161.49998l10.913773 0l0 161.49998z" fill-rule="evenodd"/><path fill="#34adc7" d="m208.98923 161.61346l0 -161.49998l10.913773 0l0 161.49998z" fill-rule="evenodd"/><path fill="#ca504a" d="m264.01276 161.61346l0 -161.49998l10.913788 0l0 161.49998z" fill-rule="evenodd"/><path fill="#4083bd" d="m98.94226 9.249626l0 -9.136386l10.913773 0l0 9.136386z" fill-rule="evenodd"/><path fill="#4083bd" d="m82.59972 32.857456l0 0c0 -12.039791 9.760178 -21.79997 21.799965 -21.79997l0 0c5.7817154 0 11.326622 2.2967758 15.414909 6.385063c4.0882874 4.0882874 6.385063 9.633196 6.385063 15.414907l0 0c0 12.039791 -9.760178 21.799969 -21.799973 21.799969l0 0c-12.039787 0 -21.799965 -9.760178 -21.799965 -21.799969z" fill-rule="evenodd"/><path fill="#ffffff" d="m91.15478 32.857094l0 0c0 -7.3145123 5.9295807 -13.244097 13.244095 -13.244097l0 0c3.5125504 0 6.881233 1.3953571 9.364983 3.8791065c2.4837494 2.4837494 3.8791122 5.852436 3.8791122 9.36499l0 0c0 7.3145103 -5.9295883 13.244091 -13.244095 13.244091l0 0c-7.314514 0 -13.244095 -5.9295807 -13.244095 -13.244091z" fill-rule="evenodd"/><path fill="#ffffff" d="m6.1154857 132.75066l86.519684 0l0 9.70079l-86.519684 0z" fill-rule="evenodd"/><path stroke="#9bb859" stroke-width="1.0" stroke-linejoin="round" stroke-linecap="butt" d="m6.1154857 132.75066l86.519684 0l0 9.70079l-86.519684 0z" fill-rule="evenodd"/><path fill="#000000" d="m11.872695 134.49667q0.328125 0 0.609375 0.0625q0.28125 0.046875 0.53125 0.15625l-0.21875 0.5q-0.203125 -0.09375 -0.4375 -0.125q-0.21875 -0.046875 -0.46875 -0.046875q-0.4375 0 -0.671875 0.171875q-0.21875 0.171875 -0.21875 0.53125l0 0.84375l1.4375 0l-0.078125 0.53125l-1.359375 0l0 3.359375l-0.671875 0l0 -3.359375l-1.0 0l0 -0.53125l1.0 0l0 -0.828125q0 -0.390625 0.203125 -0.671875q0.203125 -0.296875 0.546875 -0.4375q0.359375 -0.15625 0.796875 -0.15625zm2.831192 4.109375q0.03125 0.5 0.1875 0.8125q0.171875 0.296875 0.4375 0.453125q0.28125 0.140625 0.609375 0.140625q0.32812595 0 0.57812595 -0.09375q0.265625 -0.09375 0.546875 -0.28125l0.3125 0.4375q-0.296875 0.234375 -0.671875 0.375q-0.375 0.125 -0.76562595 0.125q-0.625 0 -1.0625 -0.265625q-0.421875 -0.28125 -0.65625 -0.78125q-0.21875 -0.5 -0.21875 -1.140625q0 -0.640625 0.21875 -1.140625q0.234375 -0.5 0.640625 -0.78125q0.421875 -0.28125 0.984375 -0.28125q0.53125095 0 0.90625095 0.25q0.390625 0.25 0.59375 0.71875q0.21875 0.453125 0.21875 1.09375q0 0.109375 -0.015625 0.203125q0 0.09375 -0.015625 0.15625l-2.828126 0zm1.140625 -1.875q-0.453125 0 -0.78125 0.34375q-0.3125 0.328125 -0.34375 1.015625l2.187501 0q-0.015625 -0.671875 -0.296875 -1.015625q-0.28125 -0.34375 -0.76562595 -0.34375zm6.143693 2.828125q0 0.25 0.078125 0.375q0.09375 0.109375 0.265625 0.171875l-0.15625 0.46875q-0.265625 -0.03125 -0.484375 -0.171875q-0.203125 -0.140625 -0.28125 -0.421875q-0.234375 0.296875 -0.578125 0.453125q-0.34375 0.140625 -0.75 0.140625q-0.625 0 -1.0 -0.359375q-0.359375 -0.359375 -0.359375 -0.9375q0 -0.65625 0.5 -1.0q0.515625 -0.359375 1.484375 -0.359375l0.609375 0l0 -0.34375q0 -0.453125 -0.265625 -0.640625q-0.265625 -0.203125 -0.734375 -0.203125q-0.203125 0 -0.484375 0.0625q-0.28125 0.046875 -0.609375 0.15625l-0.171875 -0.5q0.375 -0.15625 0.71875 -0.203125q0.34375 -0.0625 0.65625 -0.0625q0.78125 0 1.171875 0.375q0.390625 0.359375 0.390625 0.984375l0 2.015625zm-1.734375 0.5q0.3125 0 0.59375 -0.15625q0.28125 -0.15625 0.46875 -0.4375l0 -1.078125l-0.609375 0q-0.6875 0 -0.984375 0.234375q-0.28125 0.234375 -0.28125 0.640625q0 0.390625 0.203125 0.59375q0.203125 0.203125 0.609375 0.203125zm6.862442 0.203125q-0.203125 0.15625 -0.515625 0.234375q-0.3125 0.078125 -0.609375 0.078125q-0.671875 0 -1.046875 -0.359375q-0.359375 -0.359375 -0.359375 -0.921875l0 -2.5l-0.96875 0l0 -0.53125l0.96875 0l0 -0.953125l0.671875 -0.078125l0 1.03125l1.453125 0l-0.078125 0.53125l-1.375 0l0 2.5q0 0.34375 0.171875 0.53125q0.1875 0.1875 0.625 0.1875q0.234375 0 0.4375 -0.046875q0.203125 -0.0625 0.375 -0.15625l0.25 0.453125zm2.128067 -4.0l0 2.984375q0 0.421875 0.171875 0.609375q0.171875 0.1875 0.546875 0.1875q0.34375 0 0.65625 -0.203125q0.3125 -0.203125 0.484375 -0.46875l0 -3.109375l0.671875 0l0 4.21875l-0.578125 0l-0.046875 -0.5625q-0.25 0.3125 -0.625 0.484375q-0.359375 0.171875 -0.734375 0.171875q-0.609375 0 -0.921875 -0.328125q-0.296875 -0.328125 -0.296875 -0.90625l0 -3.078125l0.671875 0zm4.174942 4.21875l0 -0.515625l0.65625 0l0 -3.1875l-0.65625 0l0 -0.515625l1.171875 0l0.125 1.0q0.234375 -0.515625 0.578125 -0.796875q0.359375 -0.28125 0.921875 -0.28125q0.1875 0 0.3125 0.03125q0.140625 0.015625 0.296875 0.046875l-0.203125 0.609375q-0.125 -0.03125 -0.234375 -0.046875q-0.109375 -0.03125 -0.25 -0.03125q-0.484375 0 -0.84375 0.34375q-0.34375 0.34375 -0.546875 1.046875l0 1.78125l0.859375 0l0 0.515625l-2.1875 0zm2.75 -2.78125l0 -0.921875l0.0625 -0.515625l0.59375 0l-0.109375 1.4375l-0.546875 0zm2.534317 0.90625q0.03125 0.5 0.1875 0.8125q0.171875 0.296875 0.4375 0.453125q0.28125 0.140625 0.609375 0.140625q0.328125 0 0.578125 -0.09375q0.265625 -0.09375 0.546875 -0.28125l0.3125 0.4375q-0.296875 0.234375 -0.671875 0.375q-0.375 0.125 -0.765625 0.125q-0.625 0 -1.0625 -0.265625q-0.421875 -0.28125 -0.65625 -0.78125q-0.21875 -0.5 -0.21875 -1.140625q0 -0.640625 0.21875 -1.140625q0.234375 -0.5 0.640625 -0.78125q0.421875 -0.28125 0.984375 -0.28125q0.53125 0 0.90625 0.25q0.390625 0.25 0.59375 0.71875q0.21875 0.453125 0.21875 1.09375q0 0.109375 -0.015625 0.203125q0 0.09375 -0.015625 0.15625l-2.828125 0zm1.140625 -1.875q-0.453125 0 -0.78125 0.34375q-0.3125 0.328125 -0.34375 1.015625l2.1875 0q-0.015625 -0.671875 -0.296875 -1.015625q-0.28125 -0.34375 -0.765625 -0.34375zm3.299942 4.578125l-0.546875 -0.25l3.421875 -7.046875l0.53125 0.25l-3.40625 7.046875zm6.565567 -5.734375l0 4.90625l-0.6875 0l0 -4.90625l-1.734375 0l0 -0.609375l4.15625 0l-0.0625 0.609375l-1.671875 0zm3.768692 -0.03125l0 1.859375l2.03125 0l0 0.5625l-2.03125 0l0 1.953125l2.5 0l0 0.5625l-3.203125 0l0 -5.515625l3.125 0l-0.078125 0.578125l-2.34375 0zm6.565567 3.53125l-2.1875 0l-0.4375 1.40625l-0.6875 0l1.796875 -5.515625l0.890625 0l1.796875 5.515625l-0.734375 0l-0.4375 -1.40625zm-2.0 -0.578125l1.8125 0l-0.890625 -2.9375l-0.921875 2.9375zm7.581192 -3.53125l0.3125 5.515625l-0.671875 0l-0.171875 -2.875q-0.015625 -0.296875 -0.03125 -0.59375q0 -0.296875 -0.015625 -0.5625q0 -0.28125 0 -0.5q0 -0.21875 0 -0.34375l-0.921875 3.890625l-0.703125 0l-1.0 -3.890625q0.015625 0.125 0.015625 0.359375q0 0.21875 0 0.5q0 0.28125 0 0.578125q0 0.296875 -0.015625 0.546875l-0.15625 2.890625l-0.640625 0l0.3125 -5.515625l0.96875 0l0.890625 3.78125l0.84375 -3.78125l0.984375 0zm1.346817 3.296875l0 -0.578125l3.203125 0l0 0.578125l-3.203125 0zm6.987442 -3.296875l0 5.359375l-0.671875 0l0 -4.625l-1.265625 0.765625l-0.28125 -0.46875l1.640625 -1.03125l0.578125 0zm1.15625 4.96875l0 0.546875l-3.1875 0l0 -0.546875l3.1875 0zm2.815567 -5.046875q0.515625 0 0.890625 0.203125q0.375 0.1875 0.5625 0.546875q0.203125 0.34375 0.203125 0.78125q0 0.375 -0.140625 0.75q-0.125 0.359375 -0.421875 0.765625q-0.28125 0.390625 -0.75 0.875q-0.46875 0.484375 -1.15625 1.09375l2.59375 0l-0.078125 0.578125l-3.28125 0l0 -0.546875q0.625 -0.59375 1.0625 -1.046875q0.4375 -0.453125 0.71875 -0.78125q0.296875 -0.34375 0.453125 -0.609375q0.171875 -0.28125 0.234375 -0.53125q0.0625 -0.25 0.0625 -0.515625q0 -0.46875 -0.265625 -0.734375q-0.265625 -0.265625 -0.71875 -0.265625q-0.40625 0 -0.671875 0.140625q-0.25 0.140625 -0.515625 0.4375l-0.46875 -0.359375q0.328125 -0.390625 0.71875 -0.578125q0.40625 -0.203125 0.96875 -0.203125zm4.784317 0q0.53125 0 0.90625 0.1875q0.375 0.1875 0.578125 0.5q0.21875 0.3125 0.21875 0.6875q0 0.328125 -0.15625 0.609375q-0.140625 0.265625 -0.390625 0.453125q-0.234375 0.171875 -0.53125 0.21875q0.328125 0.03125 0.609375 0.1875q0.28125 0.15625 0.453125 0.453125q0.1875 0.28125 0.1875 0.703125q0 0.484375 -0.25 0.875q-0.234375 0.375 -0.671875 0.59375q-0.421875 0.21875 -0.984375 0.21875q-0.46875 0 -0.921875 -0.171875q-0.453125 -0.1875 -0.78125 -0.5625l0.453125 -0.375q0.234375 0.28125 0.5625 0.421875q0.328125 0.125 0.671875 0.125q0.5625 0 0.890625 -0.296875q0.328125 -0.296875 0.328125 -0.828125q0 -0.390625 -0.15625 -0.609375q-0.140625 -0.234375 -0.40625 -0.328125q-0.25 -0.09375 -0.578125 -0.09375l-0.46875 0l0.09375 -0.53125l0.3125 0q0.28125 0 0.515625 -0.109375q0.234375 -0.109375 0.375 -0.3125q0.15625 -0.21875 0.15625 -0.546875q0 -0.453125 -0.296875 -0.6875q-0.296875 -0.25 -0.734375 -0.25q-0.359375 0 -0.625 0.125q-0.265625 0.125 -0.546875 0.390625l-0.375 -0.421875q0.359375 -0.328125 0.75 -0.46875q0.40625 -0.15625 0.8125 -0.15625zm4.846817 0l0.5625 0.234375l-1.46875 3.484375l2.953125 0l0 0.53125l-3.65625 0l0 -0.484375l1.609375 -3.765625zm1.328125 2.15625l0 3.4375l-0.640625 0l-0.015625 -1.75l0.09375 -1.6875l0.5625 0z" fill-rule="nonzero"/><path fill="#ffffff" d="m92.4462 107.39895l23.90551 0l0 9.70079l-23.90551 0z" fill-rule="evenodd"/><path stroke="#4083bd" stroke-width="1.0" stroke-linejoin="round" stroke-linecap="butt" d="m92.4462 107.39895l23.90551 0l0 9.70079l-23.90551 0z" fill-rule="evenodd"/><path fill="#000000" d="m98.37719 110.832466q0.203125 0 0.390625 0.09375q0.1875 0.078125 0.296875 0.328125q0.125 0.25 0.125 0.734375l0 3.140625l-0.625 0l0 -3.03125q0 -0.390625 -0.046875 -0.5625q-0.046875 -0.1875 -0.265625 -0.1875q-0.1875 0 -0.375 0.125q-0.1875 0.109375 -0.359375 0.390625l0 3.265625l-0.640625 0l0 -3.03125q0 -0.390625 -0.046875 -0.5625q-0.046875 -0.1875 -0.265625 -0.1875q-0.203125 0 -0.390625 0.125q-0.171875 0.109375 -0.34375 0.390625l0 3.265625l-0.625 0l0 -4.21875l0.53125 0l0.03125 0.5q0.171875 -0.25 0.390625 -0.40625q0.21875 -0.171875 0.53125 -0.171875q0.234375 0 0.4375 0.109375q0.21875 0.109375 0.328125 0.4375q0.171875 -0.234375 0.375 -0.390625q0.21875 -0.15625 0.546875 -0.15625zm5.034317 3.375q0 0.25 0.078125 0.375q0.09375 0.109375 0.265625 0.171875l-0.15625 0.46875q-0.265625 -0.03125 -0.484375 -0.171875q-0.203125 -0.140625 -0.28125 -0.421875q-0.234375 0.296875 -0.578125 0.453125q-0.34375 0.140625 -0.75 0.140625q-0.625 0 -1.0 -0.359375q-0.359375 -0.359375 -0.359375 -0.9375q0 -0.65625 0.5 -1.0q0.515625 -0.359375 1.484375 -0.359375l0.609375 0l0 -0.34375q0 -0.453125 -0.265625 -0.640625q-0.265625 -0.203125 -0.734375 -0.203125q-0.203125 0 -0.484375 0.0625q-0.28125 0.046875 -0.609375 0.15625l-0.171875 -0.5q0.375 -0.15625 0.71875 -0.203125q0.34375 -0.0625 0.65625 -0.0625q0.78125 0 1.171875 0.375q0.390625 0.359375 0.390625 0.984375l0 2.015625zm-1.734375 0.5q0.3125 0 0.59375 -0.15625q0.28125 -0.15625 0.46875 -0.4375l0 -1.078125l-0.609375 0q-0.6875 0 -0.984375 0.234375q-0.28125 0.234375 -0.28125 0.640625q0 0.390625 0.203125 0.59375q0.203125 0.203125 0.609375 0.203125zm5.659317 -3.796875l0 3.6875l1.1875 0l0 0.53125l-3.15625 0l0 -0.53125l1.296875 0l0 -3.15625l-1.265625 0l0 -0.53125l1.9375 0zm-0.53125 -1.96875q0.21875 0 0.34375 0.140625q0.140625 0.140625 0.140625 0.328125q0 0.203125 -0.140625 0.34375q-0.125 0.140625 -0.34375 0.140625q-0.21875 0 -0.359375 -0.140625q-0.125 -0.140625 -0.125 -0.34375q0 -0.1875 0.125 -0.328125q0.140625 -0.140625 0.359375 -0.140625zm3.190567 6.1875l0 -4.21875l0.578125 0l0.046875 0.59375q0.265625 -0.328125 0.640625 -0.5q0.390625 -0.171875 0.75 -0.171875q0.625 0 0.90625 0.328125q0.28125 0.328125 0.28125 0.90625l0 3.0625l-0.671875 0l0 -2.5625q0 -0.4375 -0.046875 -0.703125q-0.046875 -0.265625 -0.203125 -0.375q-0.140625 -0.125 -0.46875 -0.125q-0.25 0 -0.46875 0.109375q-0.21875 0.09375 -0.390625 0.265625q-0.15625 0.15625 -0.28125 0.328125l0 3.0625l-0.671875 0z" fill-rule="nonzero"/><path fill="#9bb859" d="m43.918705 99.9993l0 0c0.030662537 -12.093643 9.807926 -21.881187 21.858196 -21.881187l0 10.929131c-6.025173 0 -10.913822 4.9114 -10.929096 10.979965z" fill-rule="evenodd"/><path fill="#9bb859" d="m65.6378 78.117455l23.120598 0l0 10.913773l-23.120598 0z" fill-rule="evenodd"/><path fill="#9bb859" d="m109.8023 67.18802l0 0c-0.050239563 12.079628 -9.821701 21.845444 -21.85807 21.845444l0 -10.929131c6.0182495 0 10.904007 -4.9005356 10.929039 -10.96209z" fill-rule="evenodd"/></g></svg>