<svg version="1.1" viewBox="0.0 0.0 299.501312335958 161.501312335958" fill="none" stroke="none" stroke-linecap="square" stroke-miterlimit="10" xmlns:xlink="http://www.w3.org/1999/xlink" xmlns="http://www.w3.org/2000/svg"><clipPath id="p.0"><path d="m0 0l299.5013 0l0 161.50131l-299.5013 0l0 -161.50131z" clip-rule="nonzero"/></clipPath><g clip-path="url(#p.0)"><path fill="#000000" fill-opacity="0.0" d="m0 0l299.5013 0l0 161.50131l-299.5013 0z" fill-rule="evenodd"/><path fill="#ff9342" d="m153.9657 161.61346l0 -161.49998l10.913773 0l0 161.49998z" fill-rule="evenodd"/><defs><linearGradient id="p.1" gradientUnits="userSpaceOnUse" gradientTransform="matrix(-3.5260458161905257 0.0 0.0 -3.5260458161905257 0.0 0.0)" spreadMethod="pad" x1="-46.73928541650985" y1="-19.055002639911113" x2="-46.739299954926544" y2="-15.528956823750558"><stop offset="0.0" stop-color="#34adc7"/><stop offset="1.0" stop-color="#ff9342"/></linearGradient></defs><path fill="url(#p.1)" d="m164.80487 67.188774l0 -12.4329605l-10.913788 0l0 12.4329605z" fill-rule="evenodd"/><path fill="#34adc7" d="m208.9895 161.61374l0 -62.330673l10.913773 0l0 62.330673z" fill-rule="evenodd"/><path fill="#ff9342" d="m137.6312 32.85276l0 0c0 -12.037197 9.758072 -21.795275 21.795273 -21.795275l0 0c5.7804565 0 11.324173 2.2962818 15.411591 6.383688c4.0874023 4.087408 6.3836823 9.631121 6.3836823 15.411587l0 0c0 12.037201 -9.758072 21.795277 -21.795273 21.795277l0 0c-12.037201 0 -21.795273 -9.758076 -21.795273 -21.795277z" fill-rule="evenodd"/><path fill="#ffffff" d="m146.18625 32.857094l0 0c0 -7.3145123 5.9295807 -13.244097 13.244095 -13.244097l0 0c3.512558 0 6.881241 1.3953571 9.36499 3.8791065c2.4837494 2.4837494 3.8791046 5.852436 3.8791046 9.36499l0 0c0 7.3145103 -5.9295807 13.244091 -13.244095 13.244091l0 0c-7.314514 0 -13.244095 -5.9295807 -13.244095 -13.244091z" fill-rule="evenodd"/><path fill="#ffffff" d="m145.20209 93.1601l28.440948 0l0 12.913391l-28.440948 0z" fill-rule="evenodd"/><path stroke="#ff9342" stroke-width="1.0" stroke-linejoin="round" stroke-linecap="butt" d="m145.20209 93.1601l28.440948 0l0 12.913391l-28.440948 0z" fill-rule="evenodd"/><path fill="#000000" d="m151.40056 97.72242q0.28125 0 0.515625 0.125q0.25 0.109375 0.40625 0.453125q0.171875 0.328125 0.171875 0.984375l0 4.171875l-0.828125 0l0 -4.03125q0 -0.53125 -0.078125 -0.765625q-0.0625 -0.234375 -0.359375 -0.234375q-0.25 0 -0.5 0.15625q-0.25 0.15625 -0.484375 0.515625l0 4.359375l-0.828125 0l0 -4.03125q0 -0.53125 -0.078125 -0.765625q-0.0625 -0.234375 -0.359375 -0.234375q-0.265625 0 -0.515625 0.15625q-0.234375 0.15625 -0.46875 0.515625l0 4.359375l-0.828125 0l0 -5.609375l0.703125 0l0.0625 0.65625q0.234375 -0.328125 0.515625 -0.546875q0.28125 -0.234375 0.703125 -0.234375q0.3125 0 0.59375 0.15625q0.296875 0.15625 0.421875 0.59375q0.234375 -0.328125 0.515625 -0.53125q0.296875 -0.21875 0.71875 -0.21875zm6.721939 4.515625q0 0.328125 0.109375 0.484375q0.109375 0.15625 0.34375 0.234375l-0.21875 0.625q-0.359375 -0.046875 -0.640625 -0.234375q-0.265625 -0.1875 -0.390625 -0.5625q-0.296875 0.390625 -0.75 0.59375q-0.453125 0.203125 -1.0 0.203125q-0.84375 0 -1.328125 -0.46875q-0.484375 -0.484375 -0.484375 -1.265625q0 -0.875 0.671875 -1.328125q0.671875 -0.46875 1.953125 -0.46875l0.828125 0l0 -0.46875q0 -0.609375 -0.359375 -0.859375q-0.34375 -0.25 -0.984375 -0.25q-0.265625 0 -0.640625 0.0625q-0.375 0.0625 -0.8125 0.21875l-0.234375 -0.671875q0.515625 -0.1875 0.96875 -0.265625q0.453125 -0.09375 0.859375 -0.09375q1.046875 0 1.578125 0.5q0.53125 0.484375 0.53125 1.3125l0 2.703125zm-2.328125 0.65625q0.421875 0 0.796875 -0.203125q0.375 -0.21875 0.625 -0.59375l0 -1.4375l-0.8125 0q-0.921875 0 -1.3125 0.328125q-0.375 0.3125 -0.375 0.84375q0 0.53125 0.265625 0.796875q0.28125 0.265625 0.8125 0.265625zm7.534439 -5.046875l0 4.90625l1.59375 0l0 0.703125l-4.21875 0l0 -0.703125l1.734375 0l0 -4.203125l-1.671875 0l0 -0.703125l2.5625 0zm-0.703125 -2.625q0.296875 0 0.46875 0.1875q0.1875 0.171875 0.1875 0.4375q0 0.265625 -0.1875 0.453125q-0.171875 0.1875 -0.46875 0.1875q-0.28125 0 -0.46875 -0.1875q-0.1875 -0.1875 -0.1875 -0.453125q0 -0.265625 0.1875 -0.4375q0.1875 -0.1875 0.46875 -0.1875zm4.268814 8.234375l0 -5.609375l0.75 0l0.078125 0.78125q0.34375 -0.4375 0.84375 -0.671875q0.515625 -0.234375 1.0 -0.234375q0.828125 0 1.203125 0.4375q0.375 0.4375 0.375 1.21875l0 4.078125l-0.890625 0l0 -3.421875q0 -0.5625 -0.0625 -0.921875q-0.0625 -0.359375 -0.265625 -0.515625q-0.203125 -0.171875 -0.625 -0.171875q-0.328125 0 -0.625 0.15625q-0.296875 0.140625 -0.53125 0.359375q-0.21875 0.203125 -0.359375 0.421875l0 4.09375l-0.890625 0z" fill-rule="nonzero"/><path fill="#34adc7" d="m219.77592 99.9993l0 0c-0.030670166 -12.093643 -9.807922 -21.881187 -21.8582 -21.881187l0 10.929131c6.025177 0 10.913818 4.9114 10.929092 10.979965z" fill-rule="evenodd"/><path fill="#34adc7" d="m198.65237 78.11811l-23.451355 0l0 10.913773l23.451355 0z" fill-rule="evenodd"/><path fill="#34adc7" d="m153.89232 67.18802l0 0c0.050247192 12.079628 9.821716 21.845444 21.858078 21.845444l0 -10.929131c-6.0182495 0 -10.904007 -4.9005356 -10.929031 -10.96209z" fill-rule="evenodd"/><path fill="#ffffff" d="m184.00525 111.27821l59.968506 0l0 12.913391l-59.968506 0z" fill-rule="evenodd"/><path stroke="#34adc7" stroke-width="1.0" stroke-linejoin="round" stroke-linecap="butt" d="m184.00525 111.27821l59.968506 0l0 12.913391l-59.968506 0z" fill-rule="evenodd"/><path fill="#000000" d="m188.85796 115.02803l0 6.546875l-0.921875 0l0 -6.546875l-2.296875 0l0 -0.796875l5.546875 0l-0.109375 0.796875l-2.21875 0zm5.018814 -0.03125l0 2.46875l2.71875 0l0 0.765625l-2.71875 0l0 2.609375l3.328125 0l0 0.734375l-4.25 0l0 -7.34375l4.15625 0l-0.109375 0.765625l-3.125 0zm8.753189 4.703125l-2.90625 0l-0.59375 1.875l-0.90625 0l2.390625 -7.34375l1.171875 0l2.390625 7.34375l-0.96875 0l-0.578125 -1.875zm-2.671875 -0.765625l2.421875 0l-1.203125 -3.921875l-1.21875 3.921875zm10.096939 -4.703125l0.40625 7.34375l-0.890625 0l-0.21875 -3.828125q-0.015625 -0.390625 -0.03125 -0.78125q-0.015625 -0.40625 -0.03125 -0.765625q0 -0.375 0 -0.65625q0 -0.296875 0 -0.453125l-1.234375 5.171875l-0.921875 0l-1.328125 -5.171875q0 0.15625 0 0.453125q0.015625 0.296875 0.015625 0.6875q0 0.375 -0.015625 0.765625q0 0.390625 -0.015625 0.734375l-0.203125 3.84375l-0.859375 0l0.40625 -7.34375l1.296875 0l1.1875 5.03125l1.140625 -5.03125l1.296875 0zm1.8000641 4.390625l0 -0.765625l4.2656403 0l0 0.765625l-4.2656403 0zm10.518829 -4.390625l-0.125 0.71875l-2.90625 0l0 2.3125q0.34375 -0.171875 0.640625 -0.234375q0.296875 -0.078125 0.625 -0.078125q0.59375 0 1.046875 0.265625q0.453125 0.265625 0.703125 0.796875q0.25 0.515625 0.25 1.234375q0 0.734375 -0.3125 1.296875q-0.296875 0.546875 -0.859375 0.859375q-0.546875 0.296875 -1.296875 0.296875q-0.671875 0 -1.1875 -0.234375q-0.515625 -0.234375 -0.9375 -0.65625l0.546875 -0.53125q0.328125 0.34375 0.71875 0.515625q0.390625 0.15625 0.859375 0.15625q0.734375 0 1.125 -0.4375q0.40625 -0.4375 0.40625 -1.28125q0 -0.59375 -0.171875 -0.9375q-0.171875 -0.34375 -0.484375 -0.484375q-0.296875 -0.15625 -0.65625 -0.15625q-0.328125 0 -0.578125 0.0625q-0.25 0.0625 -0.5625 0.1875l-0.71875 0l0 -3.671875l3.875 0zm4.128189 -0.109375l0.75 0.3125l-1.953125 4.640625l3.90625 0l0 0.71875l-4.859375 0l0 -0.65625l2.15625 -5.015625zm1.765625 2.875l0 4.578125l-0.875 0l0 -2.328125l0.125 -2.25l0.75 0zm4.565689 -2.875q0.6875 0 1.1875 0.25q0.515625 0.25 0.78125 0.671875q0.28125 0.40625 0.28125 0.90625q0 0.453125 -0.203125 0.8125q-0.1875 0.359375 -0.515625 0.59375q-0.3125 0.234375 -0.703125 0.3125q0.421875 0.03125 0.796875 0.25q0.390625 0.203125 0.625 0.59375q0.234375 0.375 0.234375 0.953125q0 0.625 -0.328125 1.140625q-0.3125 0.5 -0.890625 0.796875q-0.5625 0.296875 -1.328125 0.296875q-0.609375 0 -1.21875 -0.234375q-0.609375 -0.234375 -1.03125 -0.75l0.609375 -0.484375q0.3125 0.359375 0.734375 0.546875q0.4375 0.171875 0.890625 0.171875q0.765625 0 1.1875 -0.390625q0.4375 -0.40625 0.4375 -1.09375q0 -0.53125 -0.203125 -0.828125q-0.1875 -0.3125 -0.53125 -0.4375q-0.34375 -0.125 -0.78125 -0.125l-0.609375 0l0.109375 -0.71875l0.421875 0q0.359375 0 0.671875 -0.125q0.328125 -0.140625 0.53125 -0.421875q0.203125 -0.296875 0.203125 -0.734375q0 -0.59375 -0.40625 -0.90625q-0.40625 -0.328125 -0.984375 -0.328125q-0.484375 0 -0.84375 0.171875q-0.34375 0.15625 -0.71875 0.5l-0.484375 -0.546875q0.46875 -0.4375 0.984375 -0.640625q0.53125 -0.203125 1.09375 -0.203125zm6.409439 0q0.6875 0 1.171875 0.265625q0.5 0.265625 0.765625 0.734375q0.265625 0.453125 0.265625 1.046875q0 0.5 -0.171875 0.984375q-0.171875 0.484375 -0.5625 1.015625q-0.390625 0.53125 -1.015625 1.171875q-0.625 0.640625 -1.53125 1.46875l3.453125 0l-0.109375 0.765625l-4.359375 0l0 -0.734375q0.828125 -0.796875 1.40625 -1.390625q0.59375 -0.59375 0.96875 -1.046875q0.375 -0.453125 0.59375 -0.8125q0.21875 -0.375 0.296875 -0.703125q0.09375 -0.328125 0.09375 -0.6875q0 -0.625 -0.359375 -0.96875q-0.34375 -0.359375 -0.953125 -0.359375q-0.546875 0 -0.890625 0.1875q-0.34375 0.1875 -0.6875 0.59375l-0.625 -0.484375q0.4375 -0.53125 0.96875 -0.78125q0.53125 -0.265625 1.28125 -0.265625z" fill-rule="nonzero"/></g></svg>